# xmcd
#
# Track frame offsets: 
#        150
#        18776
#        34737
#        52751
#        69228
#        90097
#        110385
#        124607
#        146907
#        168079
#
# Disc length: 2600 seconds
#
# Revision: 0
# Processed by: cddbd v1.5.2PL0 Copyright (c) Steve Scherf et al.
# Submitted via: ExactAudioCopyFreeDBPlugin 1.0
#
DISCID=6d0a260a
DTITLE=Ray Cashman - 2000 Miles
DYEAR=2003
DGENRE=Country
TTITLE0=2000 Miles
TTITLE1=Hardway
TTITLE2=Leave
TTITLE3=Sometimes
TTITLE4=One Last Time
TTITLE5=Cryin'
TTITLE6=Turn The Key
TTITLE7=Turn back The Years
TTITLE8=Saw It On The News
TTITLE9=Moonlight
EXTD=
EXTT0=
EXTT1=
EXTT2=
EXTT3=
EXTT4=
EXTT5=
EXTT6=
EXTT7=
EXTT8=
EXTT9=
PLAYORDER=
